C:\GBW_MyPrograms\PredSimResults\gait1018\gait1018_v27.mot
version=1
nRows=16
nColumns=29
inDegrees=yes
endheader
                time	         pelvis_tilt	           pelvis_tx	           pelvis_ty	       hip_flexion_l	       hip_flexion_r	        knee_angle_l	        knee_angle_r	       ankle_angle_l	       ankle_angle_r	    lumbar_extension	hamstrings_r/activation	bifemsh_r/activation	glut_max_r/activation	iliopsoas_r/activation	rect_fem_r/activation	  vasti_r/activation	gastroc_r/activation	 soleus_r/activation	tib_ant_r/activation	hamstrings_l/activation	bifemsh_l/activation	glut_max_l/activation	iliopsoas_l/activation	rect_fem_l/activation	  vasti_l/activation	gastroc_l/activation	 soleus_l/activation	tib_ant_l/activation	
          1.53722035	         -8.11052549	          1.91808774	          0.89479738	         32.12769381	         -8.52739154	        -11.65244532	        -12.07848285	          8.78168214	          3.61115199	          1.21932785	          0.05000000	          0.10608795	          0.05000000	          0.52453820	          0.08024548	          0.05854011	          0.26439481	          0.33172068	          0.05000000	          0.21811042	          0.05000000	          0.07912946	          0.05000000	          0.08024548	          0.05464518	          0.05000000	          0.05752461	          0.20210306	
          1.54746848	         -8.11879976	          1.93408309	          0.89430868	         31.27894156	         -8.26500917	        -10.75066314	        -14.25035266	          8.61834480	          2.36987638	          1.60505490	          0.05000000	          0.09061133	          0.05000000	          0.50644481	          0.06853888	          0.05000000	          0.22582362	          0.28332767	          0.05000000	          0.20897024	          0.05000000	          0.08181840	          0.05000000	          0.06853888	          0.08103061	          0.05000003	          0.05618980	          0.20979087	
          1.55771662	         -8.11889418	          1.95031087	          0.89367496	         30.36102451	         -7.71608892	        -10.25804164	        -16.94157115	          8.40096296	          0.94461102	          2.01228743	          0.05000000	          0.07739252	          0.05000000	          0.44353334	          0.05854010	          0.05000000	          0.19287939	          0.24199447	          0.05000000	          0.18811355	          0.05000000	          0.08901871	          0.05000000	          0.05854010	          0.11971617	          0.05000000	          0.05110917	          0.24543457	
          1.56796475	         -8.11157206	          1.96666302	          0.89289308	         29.38883729	         -6.88137762	        -10.29742930	        -20.10039437	          8.10833124	         -0.80668827	          2.42863715	          0.05000000	          0.06610212	          0.05000000	          0.37882857	          0.05000000	          0.05000000	          0.16474121	          0.20669116	          0.05000000	          0.16952143	          0.05000000	          0.12771857	          0.05000000	          0.05000000	          0.14326490	          0.05759054	          0.05583678	          0.23417921	
          1.57821289	         -8.10237511	          1.98284904	          0.89215494	         28.39140497	         -5.76136067	        -10.42575330	        -23.64948960	          7.83912055	         -2.93036728	          2.82355434	          0.05000000	          0.05645883	          0.06672880	          0.32356323	          0.05000000	          0.05000000	          0.14070797	          0.17653806	          0.25371239	          0.14479083	          0.05854010	          0.18952191	          0.05000000	          0.05000000	          0.19479058	          0.05000000	          0.05000000	          0.29840065	
          1.58846102	         -8.09669692	          1.99844036	          0.89163309	         27.51826127	         -4.41836139	        -10.67877250	        -27.41837474	          7.45327755	         -4.66986870	          3.14852594	          0.05000000	          0.05000000	          0.05854010	          0.27636027	          0.13652100	          0.05000000	          0.12018082	          0.15078384	          0.21669961	          0.12366805	          0.05000000	          0.22195689	          0.05000000	          0.05000000	          0.26117992	          0.05000000	          0.05000000	          0.31510414	
          1.59870916	         -8.09761448	          2.01327704	          0.89154424	         26.81424264	         -2.98056121	        -11.14612372	        -31.02121526	          7.19128258	         -5.03021707	          3.38738852	          0.05000000	          0.07955058	          0.05000000	          0.23604351	          0.20937321	          0.05000000	          0.10264826	          0.12878677	          0.26148094	          0.10562676	          0.05000000	          0.22158374	          0.05000000	          0.05000000	          0.30875822	          0.05000000	          0.05000000	          0.32832867	
          1.60895730	         -8.10354240	          2.02746223	          0.89207525	         26.18897341	         -1.52039233	        -11.67838549	        -34.22621025	          7.04294062	         -4.82127831	          3.55271529	          0.05000000	          0.13141204	          0.05000000	          0.20160835	          0.27481157	          0.05000000	          0.08767344	          0.10999873	          0.26932294	          0.09215084	          0.05000000	          0.21046562	          0.05000000	          0.05000000	          0.33362756	          0.05000000	          0.05083680	          0.32373176	
          1.61920543	         -8.11286759	          2.04116159	          0.89321235	         25.53902248	         -0.08493869	        -12.11475758	        -36.92825396	          7.02689786	         -4.41010603	          3.66461140	          0.05346526	          0.17848997	          0.05000000	          0.17747569	          0.32280286	          0.05000000	          0.07565857	          0.09395159	          0.25529204	          0.08971635	          0.05000000	          0.19759460	          0.05000000	          0.05000000	          0.32999143	          0.05000000	          0.05598529	          0.31547155	
          1.62945357	         -8.12379698	          2.05450932	          0.89484743	         24.80368836	          1.30507642	        -12.35996196	        -39.11676940	          7.09147837	         -3.84812631	          3.73832436	          0.06240896	          0.22999586	          0.05000000	          0.15990274	          0.35357988	          0.05000000	          0.06904765	          0.08024548	          0.24018841	          0.09050628	          0.05000000	          0.18065512	          0.05000000	          0.05000000	          0.31045624	          0.05000000	          0.06187622	          0.30258407	
          1.63970170	         -8.13451804	          2.06758320	          0.89684274	         23.97370719	          2.65489887	        -12.40565601	        -40.84931508	          7.19166415	         -3.17194902	          3.78145907	          0.06755337	          0.28211698	          0.05000000	          0.14746968	          0.36819967	          0.05000000	          0.05897465	          0.06853888	          0.22112719	          0.09220249	          0.05000000	          0.16337925	          0.05000000	          0.05000000	          0.28244671	          0.05000000	          0.06800797	          0.29220875	
          1.64994984	         -8.14335612	          2.08042397	          0.89905540	         23.06745419	          3.98215081	        -12.28931844	        -42.21470591	          7.29229117	         -2.41144937	          3.79684271	          0.06483524	          0.33584750	          0.05000000	          0.13828594	          0.36964641	          0.05000000	          0.05054974	          0.05854010	          0.19989184	          0.09340078	          0.05000000	          0.15070844	          0.05000000	          0.05000000	          0.25358919	          0.05000000	          0.07551811	          0.28264276	
          1.66019797	         -8.14884257	          2.09305547	          0.90135630	         22.10877213	          5.30631802	        -12.05817344	        -43.29848579	          7.38117324	         -1.62431286	          3.78534593	          0.05537676	          0.38989751	          0.05000000	          0.13017798	          0.36116986	          0.05000000	          0.05000000	          0.05000000	          0.18392419	          0.09408024	          0.05000000	          0.14471307	          0.05000000	          0.05000000	          0.22864960	          0.05000000	          0.08385144	          0.27385045	
          1.67044611	         -8.14945204	          2.10549400	          0.90364159	         21.11401657	          6.64559480	        -11.74556408	        -44.17608503	          7.45314164	         -0.88195929	          3.74683621	          0.05000000	          0.44273354	          0.05000000	          0.12547821	          0.34724964	          0.05000000	          0.05000000	          0.05000000	          0.18283138	          0.09207862	          0.05000000	          0.13905609	          0.05000000	          0.05000000	          0.20891789	          0.05000000	          0.09254940	          0.26581429	
          1.68069425	         -8.14384945	          2.11774855	          0.90583118	         20.09359118	          8.01838035	        -11.37296935	        -44.92377173	          7.50509911	         -0.21522815	          3.68052506	          0.05000000	          0.48843934	          0.05000000	          0.12369986	          0.33023618	          0.05000000	          0.05000000	          0.05000000	          0.18164400	          0.08807588	          0.05000000	          0.13063259	          0.05000000	          0.05000000	          0.19396737	          0.05000000	          0.10154125	          0.25774022	
          1.69094238	         -8.13107605	          2.12982373	          0.90786507	         19.05501922	          9.44124913	        -10.95570664	        -45.61691982	          7.53556548	          0.41355896	          3.58556788	          0.05000000	          0.52127430	          0.05000000	          0.12234064	          0.31176478	          0.05000000	          0.05000000	          0.05000000	          0.18250383	          0.08352226	          0.05000000	          0.12250812	          0.05000000	          0.05000000	          0.18236787	          0.05609311	          0.11004399	          0.25168034	
